<?xml version="1.0" encoding="utf-8"?>
<!-- Generator: Adobe Illustrator 27.4.0, SVG Export Plug-In . SVG Version: 6.00 Build 0)  -->
<svg version="1.1" id="a" xmlns="http://www.w3.org/2000/svg" xmlns:xlink="http://www.w3.org/1999/xlink" x="0px" y="0px"
	 viewBox="0 0 88.9 31" style="enable-background:new 0 0 88.9 31;" xml:space="preserve">
<style type="text/css">
	.st0{fill:#FFFFFF;}
	.st1{fill:#EB3E3F;}
	.st2{fill:#EB4040;}
	.st3{fill:#010101;}
	.st4{fill:#535252;}
</style>
<path class="st0" d="M76.5,11.7c0.3,0.4,0.6,0.7,0.9,1.1c0.7,0.9,1.3,1.8,2,2.6c0.8,1,1.6,2,2.4,3.1c0.6,0.7,1.1,1.4,1.6,2.1
	c0.1,0.1,0.1,0.2,0.2,0.2c0,0,0,0,0.1,0.1l0,0c0,0,0,0,0.1,0.1c0.1,0.1,0.1,0.2,0.2,0.2c0,0,0.1,0.1,0.1,0.1c0,0,0.1,0,0.1-0.1
	L84,21.2c0-3.3,0-6.6,0-9.9l0,0c0.1,0,0.2,0,0.3,0c1.5,0,3.1,0,4.6,0v19.5c-1.3,0-2.5,0-3.8,0c-0.5,0-0.8-0.2-1.1-0.5
	c-0.4-0.5-0.7-1-1.1-1.5c-1.2-1.5-2.3-3-3.5-4.6c-0.8-1-1.5-2-2.3-2.9c-0.1-0.1-0.2-0.2-0.4-0.3v9.8h-5.8V11.2c0.4,0,0.8,0,1.2,0
	c1.3,0,2.5,0,3.8,0c0.2,0,0.4,0,0.5,0.2C76.5,11.6,76.5,11.6,76.5,11.7L76.5,11.7z"/>
<path class="st0" d="M9,31H7.7c0.1,0,0.2-0.1,0.2-0.1c0.1,0,0.2-0.1,0.3-0.1c0.4,0,0.7-0.1,1.1-0.1c0,0,0.1,0.1,0.1,0.1
	c-0.1,0-0.2,0-0.4,0C9,30.9,9,31,9,31L9,31z"/>
<path class="st0" d="M58.4,31h-0.5c0-0.1,0-0.1,0.1-0.2c0.3,0,0.5,0,0.8,0c0.2,0,0.3,0,0.5,0c0.3,0,0.6,0,1,0c0,0,0,0.1,0,0.1l0,0
	c-0.2,0-0.4-0.1-0.6,0.1h-0.1c0,0,0-0.1-0.1-0.1c-0.3,0-0.5,0-0.8,0C58.5,30.9,58.4,31,58.4,31L58.4,31z"/>
<path class="st0" d="M57.9,30.8c0,0.1,0,0.1-0.1,0.2h-0.4c0,0-0.1-0.1-0.1-0.1c-0.1,0-0.2,0-0.4-0.1C57.2,30.7,57.7,30.7,57.9,30.8
	L57.9,30.8z"/>
<path class="st0" d="M58.4,31c0,0,0.1-0.1,0.1-0.1c0.3,0,0.5,0,0.8,0c0,0,0,0.1,0.1,0.1H58.4L58.4,31z"/>
<path class="st0" d="M8.2,30.8c-0.1,0-0.2,0.1-0.3,0.1c-0.1,0-0.2,0.1-0.2,0.1H7.3c0-0.1,0-0.1-0.1-0.2C7.6,30.8,7.9,30.8,8.2,30.8
	L8.2,30.8z"/>
<path class="st0" d="M9,31c0-0.1,0-0.1,0-0.2c0.1,0,0.2,0,0.4,0l0.1,0c0,0,0,0.1,0,0.2H9.2c0,0,0,0-0.1,0c0,0,0,0,0,0H9L9,31z"/>
<path class="st0" d="M59.5,31c0.2-0.2,0.4-0.1,0.6-0.1c0,0,0,0,0,0c0,0,0,0,0,0.1H59.5L59.5,31z"/>
<path class="st0" d="M57,30.8c0.1,0,0.2,0,0.4,0.1c0,0,0.1,0.1,0.1,0.1H57C57,31,57,30.9,57,30.8C57,30.9,57,30.8,57,30.8z"/>
<path class="st0" d="M7.2,30.8c0,0.1,0,0.1,0.1,0.2H7c0,0,0,0,0-0.1c0,0,0,0,0,0C7.1,30.9,7.2,30.9,7.2,30.8z"/>
<path class="st0" d="M60.2,31C60.2,31,60.2,30.9,60.2,31L60.2,31c0.1,0,0.2,0,0.3-0.1c0,0,0,0.1,0,0.1L60.2,31
	C60.2,31,60.2,31,60.2,31z"/>
<path class="st0" d="M7,30.9C7,30.9,7,30.9,7,30.9C7,31,6.9,31,6.9,31H6.8c0,0,0-0.1,0-0.1C6.8,30.9,6.9,30.9,7,30.9
	C7,30.9,7,30.9,7,30.9L7,30.9z"/>
<path class="st0" d="M6.9,31C6.9,31,7,31,7,31c0,0,0,0,0,0.1H6.9L6.9,31z"/>
<path class="st0" d="M9.2,31L9.2,31C9.2,31,9.2,31,9.2,31L9.2,31z"/>
<path class="st0" d="M60.2,31C60.2,31,60.2,31,60.2,31L60.2,31C60.1,31,60.1,31,60.2,31L60.2,31z"/>
<path class="st0" d="M46.2,30.8H40v-7h-6v6.7c-0.2,0-0.3,0.1-0.3,0.3h-6.1V11.3H34v7.6h6v-7.6h6.5c0,0.1,0,0.1,0,0.2
	c0,6.3,0,12.5,0,18.8c0,0.1,0,0.1,0,0.2C46.3,30.5,46.2,30.6,46.2,30.8z"/>
<path class="st0" d="M57,30.8C57,30.8,57,30.8,57,30.8c-1-0.1-2-0.3-2.9-0.7c-1-0.5-1.9-1-2.7-1.9c-0.6-0.6-1.1-1.3-1.4-2.2
	c0,0,0,0,0-0.1c-0.3-0.8-0.5-1.7-0.7-2.5c0-0.2,0-0.4,0-0.6c0-3.8,0-7.6,0-11.4v-0.2h6.5c0,0.1,0,0.2,0,0.3c0,3.8,0,7.6,0,11.3
	c0,0.4,0.2,0.7,0.3,1.1c-0.1,0.1,0,0.2,0.1,0.2c0.3,0.4,0.7,0.9,1.2,1.1c0.2,0.1,0.5,0.2,0.8,0.3l0.2,0c0.7,0,1.3-0.1,1.9-0.5
	c0,0,0.1,0,0.1-0.1c0.2-0.2,0.3-0.4,0.5-0.5c0-0.1,0.1-0.1,0.1-0.2c0.1-0.2,0.2-0.4,0.2-0.7c0.1-0.5,0.2-0.9,0.2-1.4
	c0-3.7,0-7.4,0-11.1H68v0.3c0,3.5,0,7.1,0,10.6c0,1.6-0.3,3.2-1.1,4.7c-0.5,0.9-1.1,1.6-1.9,2.2c-0.1,0-0.1,0.1-0.2,0.2c0,0,0,0,0,0
	c-0.3,0.2-0.6,0.5-1,0.6c-0.8,0.3-1.5,0.6-2.3,0.9c-0.2,0.1-0.5,0.1-0.7,0.1c0,0-0.1,0-0.1,0c-0.1,0-0.2,0-0.2,0
	c-0.1,0-0.2,0-0.4-0.1c-0.3,0-0.6,0-1,0c-0.2-0.1-0.3-0.1-0.5,0c-0.3,0-0.5,0-0.8,0C57.7,30.7,57.2,30.7,57,30.8L57,30.8z"/>
<path class="st0" d="M7,30.9C7,30.9,7,30.9,7,30.9c-0.2-0.2-0.5-0.2-0.7-0.1c-0.5-0.1-1.1-0.2-1.6-0.4C3,30,1.7,29,0.5,27.8
	c0-0.1,0-0.2,0.1-0.2c0.3,0,0.2-0.3,0.2-0.5C1,26.7,1.3,26.4,1.5,26c0-0.1,0.1-0.1,0.2-0.2c0.1-0.2,0.2-0.3,0.3-0.5
	c0,0,0.1-0.1,0.1-0.1c0.2-0.3,0.4-0.6,0.6-0.9c0,0,0.1-0.1,0.1-0.1C3,24,3.1,23.8,3.3,23.6c0,0,0.1,0,0.1,0c1,1,2.1,1.8,3.5,2.1
	c0.7,0.1,1.4-0.1,1.8-0.8c0.1-0.1,0.2-0.1,0.3-0.2c0,0-0.1-0.1-0.1-0.2c0-2.4,0-4.8,0-7.2c0-0.7,0-0.7-0.8-0.7c-1.9,0-3.7,0-5.6,0
	c-0.1,0-0.2,0-0.3,0v-5.1h13.1c0,0.1,0,0.2,0,0.3c0,4.1,0,8.1,0,12.2c0,1.4-0.2,2.8-0.9,4c-0.6,1-1.4,1.8-2.5,2.3
	c-0.6,0.2-1.1,0.4-1.7,0.6c-0.1,0-0.2,0-0.4,0c0,0-0.1,0-0.1,0c-0.1,0-0.2,0-0.2,0c0,0-0.1,0-0.1,0c0,0-0.1-0.1-0.1-0.1
	c-0.4,0-0.7,0.1-1.1,0.1c-0.3,0-0.6,0-0.9,0.1C7.2,30.9,7.1,30.9,7,30.9L7,30.9z"/>
<path class="st1" d="M32.6,0.6c0,1.6,0,3.2,0,4.8c-0.3,0-0.5,0.1-0.8,0.1c-0.2,0-0.5-0.1-0.7-0.1c-9.9,0-19.9,0-29.8,0
	c-0.1,0-0.2,0-0.2,0c-0.4,0-0.5-0.1-0.5-0.5c0-1.1,0-2.2,0-3.3c0-0.3,0.1-0.5,0.1-0.8c0-0.2,0.1-0.2,0.3-0.2
	c0.3,0.1,0.6,0.1,0.9,0.1c5.1,0,10.3,0,15.4,0C22.3,0.7,27.5,0.9,32.6,0.6z"/>
<path class="st0" d="M24.2,30.8H18V11.3h6.4c0,0.1,0,0.1,0,0.2c0,6.3,0,12.6,0,18.9c0,0,0,0.1,0,0.1C24.3,30.5,24.2,30.6,24.2,30.8z
	"/>
<path class="st2" d="M32.6,0.6c-5.1,0.3-10.3,0.1-15.4,0.1c-5.1,0-10.3,0-15.4,0c-0.3,0-0.6,0-0.9-0.1c-0.2,0-0.3,0-0.3,0.2
	c0,0.3-0.1,0.6-0.1,0.8c0,1.1,0,2.2,0,3.3c0,0.4,0.1,0.5,0.5,0.5c0.1,0,0.2,0,0.2,0c9.9,0,19.9,0,29.8,0c0.2,0,0.5,0.1,0.7,0.1
	c0.3,0,0.5-0.1,0.8-0.1v0.4H0.3V0.3h32.3V0.6L32.6,0.6z"/>
<path class="st0" d="M0.8,27.1c0,0.2,0.1,0.4-0.2,0.5c0,0,0,0.1-0.1,0.2c0,0-0.1-0.1-0.1-0.1c0,0,0,0,0-0.1
	C0.5,27.4,0.7,27.2,0.8,27.1L0.8,27.1z"/>
<path class="st0" d="M6.3,30.8c0.2-0.2,0.5-0.2,0.7,0.1c-0.1,0-0.1,0-0.2,0C6.6,30.9,6.4,30.8,6.3,30.8z"/>
<path class="st0" d="M8.9,24.4c0,0.1,0.1,0.2,0.1,0.2c-0.1,0.1-0.2,0.2-0.3,0.2C8.7,24.7,8.8,24.5,8.9,24.4z"/>
<path class="st0" d="M46.2,30.8c0-0.2,0.1-0.2,0.3-0.3v0.3H46.2z"/>
<path class="st0" d="M24.2,30.8c0-0.2,0.1-0.2,0.3-0.3v0.3H24.2z"/>
<path class="st0" d="M33.8,30.8c0-0.2,0.1-0.2,0.3-0.3v0.3H33.8z"/>
<path class="st0" d="M60.1,30.8c0.1,0,0.2,0,0.4,0.1c0,0,0,0,0,0c-0.1,0-0.2,0-0.3,0C60.2,30.9,60.2,30.8,60.1,30.8L60.1,30.8z"/>
<path class="st0" d="M83.9,21.2L83.9,21.2c0.1,0.1,0,0.1,0,0.2C83.9,21.3,83.9,21.3,83.9,21.2C83.9,21.2,83.9,21.2,83.9,21.2
	L83.9,21.2z"/>
<path class="st0" d="M56.3,24.2c-0.2,0-0.2-0.1-0.1-0.2C56.2,24.1,56.2,24.1,56.3,24.2z"/>
<path class="st0" d="M1.7,25.8c0,0.1-0.1,0.1-0.2,0.2C1.6,26,1.6,25.9,1.7,25.8z"/>
<path class="st0" d="M58.4,25.7l-0.2,0L58.4,25.7z"/>
<path class="st0" d="M2.1,25.2c0,0-0.1,0.1-0.1,0.1C2,25.3,2,25.3,2.1,25.2z"/>
<path class="st0" d="M61.1,24.4c0,0.1-0.1,0.1-0.1,0.2C61,24.5,61.1,24.5,61.1,24.4z"/>
<path class="st0" d="M2.8,24.2c0,0-0.1,0.1-0.1,0.1C2.7,24.3,2.8,24.3,2.8,24.2z"/>
<path class="st0" d="M3.4,23.6c0,0-0.1,0-0.1,0c0,0,0-0.1,0.1-0.2C3.4,23.5,3.4,23.5,3.4,23.6z"/>
<path class="st3" d="M76.5,11.7c0-0.1-0.1-0.1-0.1-0.2C76.5,11.6,76.5,11.6,76.5,11.7z"/>
<path class="st0" d="M9.8,30.8c0,0,0.1,0,0.1,0C9.8,30.8,9.8,30.8,9.8,30.8z"/>
<path class="st0" d="M60.4,25.1c0,0-0.1,0-0.1,0.1C60.4,25.2,60.4,25.1,60.4,25.1z"/>
<path class="st0" d="M60.7,30.8c0,0,0.1,0,0.1,0C60.8,30.8,60.8,30.8,60.7,30.8z"/>
<path class="st0" d="M0.4,27.6C0.4,27.6,0.4,27.6,0.4,27.6C0.4,27.6,0.4,27.6,0.4,27.6C0.4,27.6,0.4,27.6,0.4,27.6z"/>
<path class="st0" d="M64.9,29.2C64.9,29.2,64.9,29.2,64.9,29.2C64.9,29.2,64.9,29.2,64.9,29.2z"/>
<path class="st0" d="M50,26C50,26,50.1,26.1,50,26C50.1,26.1,50.1,26,50,26z"/>
<path class="st0" d="M83.7,21C83.7,21,83.7,21,83.7,21C83.7,21,83.7,21,83.7,21z"/>
<path class="st0" d="M83.7,21C83.7,21,83.6,20.9,83.7,21C83.6,20.9,83.6,20.9,83.7,21z"/>
<path class="st4" d="M84,11.3L84,11.3C83.9,11.3,83.9,11.3,84,11.3C83.9,11.3,83.9,11.3,84,11.3z"/>
<path class="st0" d="M58.7,30.8c0.1-0.2,0.3-0.1,0.5,0C59,30.8,58.9,30.8,58.7,30.8z"/>
</svg>
