<?xml version="1.0" encoding="UTF-8"?>
<svg id="a" data-name="레이어 1" xmlns="http://www.w3.org/2000/svg" viewBox="0 0 374.88 122.88">
  <defs>
    <style>
      .b {
        fill: #c7c6c6;
      }

      .c {
        fill: #fff;
      }

      .d {
        fill: #dd403f;
      }

      .e {
        fill: #838181;
      }

      .f {
        fill: #ee9f9f;
      }

      .g {
        fill: #3f3c3c;
      }

      .h {
        fill: #080404;
      }

      .i {
        fill: #e56f6e;
      }

      .j {
        fill: #454242;
      }

      .k {
        fill: #888686;
      }

      .l {
        fill: #c1c0c0;
      }
    </style>
  </defs>
  <path class="c" d="m374.82,121.66c.22,1.01-.18,1.22-1.2,1.22-41.48-.03-82.97-.03-124.45-.03.17-.72.79-.55,1.25-.6,5.74-.63,11.21-2.15,16.23-5.07,9.42-5.48,14.6-13.79,16.18-24.44.43-2.92.52-5.87.51-8.82-.03-14.16-.01-28.32-.01-42.48q0-2.03-2.07-2.03c-7.43,0-14.86,0-22.29,0q-2.25,0-2.25,2.2c0,14.32,0,28.64,0,42.96,0,.72.04,1.44-.08,2.15-.12.45-.23.9-.19,1.37-.25,6.21-4.4,11.2-10.15,12.22-7.23,1.28-14.63-4.65-14.85-11.9.19-.58.1-1.15-.07-1.71-.12-.71-.08-1.43-.08-2.15,0-14.16,0-28.32,0-42.48,0-.32,0-.64,0-.96-.01-1.63-.06-1.69-1.68-1.69-7.71,0-15.42,0-23.13,0-1.75,0-1.81.05-1.81,1.82,0,14.64,0,29.28,0,43.92,0,2.99-.03,5.97.51,8.94,1.22,6.71,4.1,12.59,8.88,17.44,4.52,4.58,10.02,7.6,16.24,9.29,2.43.66,4.91,1.11,7.4,1.44.43.06,1.01-.08,1.14.59H36.95c.16-.72.79-.55,1.26-.61,4.53-.59,8.82-1.88,12.73-4.3,6.12-3.78,9.75-9.29,11.33-16.22.69-3.05.94-6.14.94-9.26,0-16.84,0-33.67,0-50.51,0-.32,0-.64,0-.96-.02-1.47-.11-1.58-1.56-1.58-17.26,0-34.52,0-51.79,0-.44,0-.88-.04-1.27.23-.38.34-.31.8-.31,1.23,0,5.96,0,11.93,0,17.89,0,.47-.08.97.4,1.3.58.22,1.19.15,1.78.15,7.93,0,15.85,0,23.78.02.83,0,1.85-.21,2.08,1.05.02,10.56.01,21.11,0,31.66.03,1.5-.28,2.93-.95,4.27-1.03,2.04-2.73,3.04-4.98,3.19-3.15.21-5.97-.9-8.67-2.33-2.91-1.53-5.52-3.5-7.94-5.72-1.16-1.07-1.28-1.09-2.16.17-2.37,3.4-4.76,6.79-7.14,10.19-.98,1.4-1.96,2.82-2.96,4.21-1.04,1.44-1.08,1.67.21,2.93,2.19,2.15,4.53,4.14,7.08,5.88,5.41,3.7,11.4,5.83,17.9,6.6.35.04.86-.1.88.52-8.91,0-17.82,0-26.73.02-.7,0-.87-.12-.87-.85C.03,81.65.03,41.27,0,.89,0,.08.27.01.95.01,125.26.02,249.57.02,373.87,0c.84,0,.97.19.97.99-.03,12.69-.02,25.37-.02,38.06-.11.09-.23.16-.35.23-.59.18-1.19.11-1.79.11-6.91,0-13.83,0-20.74,0-1.7,0-1.72.01-1.72,1.75,0,12.57,0,25.14-.02,37.71,0,.74.39,1.83-.54,2.12-.82.26-1.21-.77-1.65-1.34-6.5-8.45-13.04-16.87-19.53-25.32-3.48-4.53-7-9.02-10.43-13.58-.74-.99-1.6-1.38-2.84-1.37-6.27.05-12.55.02-18.82.03-.55,0-1.13-.13-1.59.32-.33.47-.21,1.01-.21,1.52,0,16.9,0,33.8,0,50.71-.01,9.24,0,18.47,0,27.71,0,.47-.09.96.24,1.37.44.4.98.29,1.49.29,6.95,0,13.9,0,20.85,0,1.62,0,1.68-.05,1.68-1.68,0-12.48,0-24.97.01-37.45,0-.73-.32-1.83.41-2.09.84-.3,1.24.8,1.71,1.4,9.99,12.86,19.93,25.75,29.86,38.65.65.85,1.39,1.19,2.44,1.19,6.51-.03,13.02-.02,19.53-.01.56,0,1.12-.06,1.67.11.13.06.24.14.35.23Z"/>
  <path class="h" d="m231.71,88.38c.51,5.47,4.25,10.08,9.48,11.4,3.33.84,6.66.5,9.6-1.59,2.77-1.97,4.37-4.68,5.09-7.95.15-.68.18-1.39.27-2.08.24-.38-.02-.84.19-1.23.01-4.55.03-9.09.03-13.64,0-11.01.01-22.02-.02-33.02,0-.96.17-1.25,1.21-1.25,8.31.05,16.62.04,24.93,0,.94,0,1.26.14,1.26,1.19-.04,15.83.08,31.67-.08,47.5-.07,7.08-1.91,13.77-5.94,19.74-2.26,3.34-5.05,6.14-8.36,8.45-4.23,2.95-8.94,4.8-13.92,5.94-1.89.43-3.83.78-5.8.76-.19,0-.41-.03-.46.24h-7.43c-.4-.2-.8-.2-1.2,0h-1.68c-.82-.54-1.8-.29-2.69-.43-5.71-.89-11.09-2.58-16.03-5.65-2.24-1.39-4.33-2.98-6.16-4.82-4.35-4.37-7.23-9.62-8.68-15.62-.7-2.9-1-5.84-.99-8.84.04-15.72.02-31.43.02-47.15q0-1.3,1.34-1.3c8.27,0,16.54.02,24.81-.03,1.02,0,1.21.27,1.21,1.24-.03,15.12-.02,30.24-.02,45.35,0,.44.02.88.03,1.31.13.48.12.97.01,1.45Z"/>
  <path class="h" d="m27.6,122.85c-.82-.54-1.79-.26-2.69-.43-3.15-.6-6.21-1.45-9.2-2.64-3.49-1.38-6.65-3.31-9.55-5.62-1.96-1.56-3.98-3.08-5.51-5.13-.38-.51-.42-.75-.04-1.29,3.34-4.71,6.63-9.46,9.94-14.19.47-.67,1.04-1.28,1.42-1.99.4-.75.75-.67,1.25-.17,2.03,2.02,4.3,3.72,6.7,5.29,2.52,1.65,5.22,2.9,8.16,3.37,2.25.36,4.59.23,6.26-1.78,1.16-1.39,1.61-3.06,1.68-4.84.15-.3.09-.63.09-.94,0-10.08,0-20.16,0-30.24,0-.32.06-.64-.09-.94.1-.72-.36-.71-.88-.7-2.36.01-4.71,0-7.07,0-6.63-.01-13.26-.02-19.89-.04-.17-.21-.13-.45-.13-.69,0-6.7,0-13.4,0-20.1,0-.24-.04-.48.13-.69.36-.01.72-.04,1.08-.04,17.69,0,35.38,0,53.08-.02.95,0,1.26.15,1.26,1.19-.04,18.14.05,36.29-.07,54.43-.04,5.97-1.49,11.66-4.99,16.66-2.76,3.94-6.41,6.76-10.83,8.71-2.86,1.26-5.84,1.93-8.85,2.58-.63.14-1.32-.26-1.9.25h-.24c-.24-.18-.48-.18-.72,0h-8.39Z"/>
  <path class="l" d="m374.82,121.66l-.27-.02c-.41-.47-.35-1.04-.35-1.59,0-26.46,0-52.92,0-79.38,0-.55-.05-1.13.35-1.59.09,0,.18-.01.27-.02v82.6Z"/>
  <path class="g" d="m240.54,122.85c.4-.38.8-.34,1.2,0h-1.2Z"/>
  <path class="k" d="m35.99,122.85c.24-.34.48-.4.72,0h-.72Z"/>
  <path class="h" d="m374.55,39.07c0,.28.03.56.03.84,0,26.96,0,53.93,0,80.89,0,.28-.02.56-.03.84-7.39,0-14.78,0-22.16.04-.72,0-1.11-.35-1.47-.81-2.93-3.78-5.84-7.56-8.75-11.36-2.5-3.27-4.96-6.56-7.47-9.82-2.57-3.33-5.18-6.61-7.75-9.94-2.3-2.98-4.58-5.98-6.86-8.97-.21-.28-.42-.55-.63-.83-.09.05-.18.09-.27.14v1.25c0,13.04-.01,26.08.03,39.12,0,1.01-.25,1.22-1.23,1.22-7.83-.06-15.65-.05-23.48-.06-.25-.41-.12-.86-.12-1.29,0-9.45,0-18.91,0-28.36,0-17.16,0-34.32,0-51.48,0-.47-.13-.96.12-1.41,7.35-.01,14.7,0,22.05-.06,1.07,0,1.27.89,1.69,1.42,3.03,3.85,5.94,7.79,8.92,11.68,3.04,3.96,6.12,7.87,9.17,11.82,3.11,4.04,6.2,8.09,9.3,12.14,1.16,1.51,2.35,3.01,3.54,4.5.13.16.26.43.71.26v-1.2c0-13.13.01-26.25-.02-39.38,0-.95.15-1.26,1.2-1.25,7.83.06,15.66.04,23.5.05Z"/>
  <path class="h" d="m140.81,91.99c0,9.46-.04,18.91,0,28.37,0,1.13-.33,1.33-1.37,1.32-8.27-.04-16.54-.03-24.81,0-.85,0-1.21-.09-1.21-1.11.03-26.81.03-53.62,0-80.43,0-.9.22-1.1,1.11-1.1,8.39.04,16.78.04,25.17,0,.9,0,1.1.22,1.1,1.11-.04,9.93,0,19.87-.05,29.8,0,1,.23,1.23,1.23,1.22,7.71-.05,15.42-.04,23.14,0,.89,0,1.11-.2,1.11-1.1-.04-9.93,0-19.87-.05-29.8,0-.99.22-1.23,1.22-1.23,8.35.05,16.7.04,25.05,0,.88,0,1.11.19,1.11,1.1-.03,26.81-.03,53.62,0,80.43,0,.85-.15,1.13-1.08,1.12-8.39-.04-16.78-.05-25.17,0-1.02,0-1.12-.35-1.12-1.21.03-9.06.02-18.11.02-27.17,0-.44-.02-.88-.03-1.31-.23-.23-.52-.15-.79-.15-7.92,0-15.85,0-23.77,0-.27,0-.56-.08-.8.15Z"/>
  <path class="d" d="m.3,29.7c0-9.72,0-19.45,0-29.17.36-.27.77-.14,1.16-.14,43.82,0,87.63,0,131.45,0,.39,0,.8-.08,1.18.09l-.02.02c.18.25.12.54.12.81,0,9.24,0,18.47,0,27.71,0,.24.03.48-.09.7-.42.19-.87.09-1.3.09-43.74,0-87.47,0-131.21,0-.43,0-.88.12-1.29-.12Z"/>
  <path class="h" d="m74.36,80.36c0-13.37.01-26.73-.02-40.1,0-.99.22-1.23,1.22-1.23,8.35.05,16.7.04,25.06,0,.89,0,1.11.2,1.1,1.1-.03,26.81-.03,53.63,0,80.44,0,.89-.2,1.11-1.1,1.11-8.39-.04-16.78-.04-25.18,0-.89,0-1.11-.2-1.11-1.1.03-13.41.02-26.81.02-40.22Z"/>
  <path class="f" d="m134.08.49c-.56,0-1.12.02-1.68.02-43.48,0-86.96,0-130.43,0-.56,0-1.12.02-1.68.03.26-.47.72-.26,1.08-.26,43.86-.01,87.73-.01,131.59,0,.38,0,.81-.16,1.12.22Z"/>
  <path class="i" d="m.3,29.7c8.35,0,16.7.01,25.05.01,35.68,0,71.35,0,107.03,0,.56,0,1.12-.02,1.68-.03.07.04.1.09.08.13-.02.05-.04.07-.07.07-.48.02-.96.06-1.43.06-43.64,0-87.27,0-130.91-.01-.47,0-1.02.27-1.42-.24Z"/>
  <path class="j" d="m294.51,39.09c0,17.07,0,34.14-.01,51.2,0,.56-.02,1.12-.03,1.67-.06.11-.11.11-.17,0-.01-.36-.04-.71-.04-1.07,0-16.88,0-33.77.01-50.65,0-.37-.29-.87.24-1.16Z"/>
  <path class="e" d="m36.02,61.3c.35.27.2.66.2,1,0,10.04,0,20.09,0,30.13,0,.34.15.72-.2,1,0-10.71,0-21.42,0-32.13Z"/>
  <path class="j" d="m294.29,91.97c.06,0,.11,0,.17,0,0,8.81.02,17.62.03,26.42,0,1.08,0,2.15.01,3.23-.36-.06-.25-.35-.25-.56,0-9.7.02-19.4.03-29.1Z"/>
  <path class="i" d="m134.07,29.89c0-.07,0-.14-.01-.21,0-9.73,0-19.45,0-29.18.42.24.23.64.23.96.01,9.15.01,18.3,0,27.45,0,.33.17.73-.23.97Z"/>
  <path class="e" d="m140.81,91.99c.2-.47.62-.25.94-.25,7.83-.01,15.66-.01,23.49,0,.31,0,.73-.22.94.26-8.45,0-16.91,0-25.36,0Z"/>
  <path class="j" d="m8.19,39.09c0,7.16,0,14.32,0,21.47-.47-.14-.24-.53-.24-.79-.02-6.63-.02-13.26,0-19.89,0-.26-.23-.65.24-.79Z"/>
  <path class="l" d="m231.71,88.38c0-.48,0-.97-.01-1.45.29.48.35.97.01,1.45Z"/>
  <path class="b" d="m256.33,86.93c-.03.42.21.87-.19,1.23,0-.42-.15-.86.19-1.23Z"/>
</svg>