<?xml version="1.0" encoding="UTF-8"?>
<svg id="a" data-name="레이어 1" xmlns="http://www.w3.org/2000/svg" viewBox="0 0 88.86 31.02">
  <defs>
    <style>
      .b {
        fill: #343434;
      }

      .c {
        fill: #a9a8a9;
      }

      .d {
        fill: #eb4040;
      }

      .e {
        fill: #f6f6f8;
      }

      .f {
        fill: #535252;
      }

      .g {
        fill: #eb3e3f;
      }

      .h {
        fill: #8a8989;
      }

      .i {
        fill: #010101;
      }
    </style>
  </defs>
  <path d="m76.54,11.67c.3.37.6.74.89,1.12.67.88,1.34,1.76,2.01,2.64.78,1.03,1.57,2.05,2.36,3.08.55.72,1.09,1.44,1.64,2.15.06.08.11.16.16.24.02.02.04.04.06.06h0s.03.04.05.06c.06.08.12.16.18.23.03.03.05.07.08.1.03-.03.05-.05.08-.08l-.1-.08c0-3.3,0-6.61.01-9.91,0,0,0,0,0,0,.11-.01.21-.04.32-.04,1.53,0,3.05,0,4.58,0v19.53c-1.27,0-2.53-.03-3.8.02-.5.02-.81-.16-1.07-.54-.36-.52-.74-1.02-1.12-1.52-1.16-1.52-2.33-3.05-3.5-4.56-.75-.98-1.51-1.95-2.27-2.92-.08-.11-.21-.18-.36-.31v9.83h-5.81V11.25c.41,0,.8,0,1.2,0,1.27,0,2.53,0,3.8,0,.22,0,.39.04.5.24.04.06.08.12.12.18Z"/>
  <path class="i" d="m9.04,31.02h-1.38c.08-.04.16-.09.24-.12.09-.04.19-.07.29-.11.36-.03.71-.07,1.07-.09.04,0,.09.09.13.13-.13,0-.25.02-.38.02,0,.06.01.11.02.17Z"/>
  <path class="i" d="m58.4,31.02h-.54c.02-.06.04-.12.06-.18.26,0,.52,0,.78,0,.16-.02.32-.03.48-.05.32,0,.63,0,.95,0,0,.04,0,.09.01.13h0c-.2.04-.44-.14-.61.11h-.12s-.05-.1-.07-.11c-.27-.01-.54-.02-.81,0-.04,0-.09.07-.13.11Z"/>
  <path class="i" d="m57.92,30.84c-.02.06-.04.12-.06.18h-.36s-.07-.1-.12-.11c-.12-.04-.24-.05-.36-.08.16-.15.66-.15.9,0Z"/>
  <path class="i" d="m58.4,31.02s.09-.11.13-.11c.27,0,.54,0,.81,0,.03,0,.05.07.07.11h-1.02Z"/>
  <path class="i" d="m8.19,30.79c-.1.04-.19.07-.29.11-.08.04-.16.08-.24.12h-.36c-.02-.06-.04-.12-.05-.18.32-.02.63-.04.95-.06Z"/>
  <path class="i" d="m9.04,31.02c0-.06-.01-.11-.02-.17.13,0,.25-.02.38-.02l.13.03c0,.05,0,.11,0,.16h-.3s-.04-.03-.05-.04c0,.01,0,.03,0,.04h-.12Z"/>
  <path class="i" d="m59.54,31.02c.16-.25.41-.06.61-.11,0,.01,0,.03,0,.04,0,.02,0,.05,0,.07h-.6Z"/>
  <path class="i" d="m57.03,30.83c.12.02.25.04.36.08.05.01.08.07.12.11h-.54c0-.06,0-.11,0-.17.02,0,.04-.01.06-.02Z"/>
  <path class="i" d="m7.25,30.84c.02.06.04.12.05.18h-.3s0-.04,0-.07c0-.02,0-.03,0-.05.08-.02.17-.04.25-.06Z"/>
  <path class="i" d="m60.15,30.95s0-.03,0-.04c0,0,0,0,0,0,.12,0,.24,0,.35-.01,0,.04,0,.08,0,.12h-.3s-.03-.05-.05-.07Z"/>
  <path class="i" d="m7,30.9s0,.03,0,.05c-.04.02-.08.04-.11.07h-.12s0-.1,0-.15c.06,0,.13.01.19.02.02,0,.04.01.06.01Z"/>
  <path class="i" d="m6.88,31.02s.08-.04.11-.07c0,.02,0,.04,0,.07h-.12Z"/>
  <path class="i" d="m9.16,31.02v-.04s.04.03.06.04h-.06Z"/>
  <path class="i" d="m60.15,30.95s.03.05.05.07h-.06s0-.05,0-.07Z"/>
  <path d="m46.2,30.77h-6.15v-7.01h-6.01v6.72c-.16.04-.3.08-.29.29h-6.15V11.27h6.44v7.59h5.98v-7.59h6.46c0,.06.01.13.01.19,0,6.27,0,12.54,0,18.81,0,.07,0,.14,0,.21-.16.04-.3.08-.29.29Z"/>
  <path d="m57.03,30.83s-.04.01-.06.02c-.98-.08-1.91-.33-2.81-.73-1.01-.45-1.93-1.05-2.68-1.87-.59-.64-1.13-1.33-1.39-2.18-.02-.02-.03-.04-.05-.06-.35-.81-.51-1.66-.66-2.52-.04-.2,0-.42,0-.62,0-3.81,0-7.62,0-11.42v-.19h6.46c0,.1,0,.19,0,.29,0,3.78,0,7.56.01,11.33,0,.37.19.73.29,1.1-.08.14-.05.23.13.24.33.44.68.87,1.19,1.1.25.11.51.19.77.28l.18.04c.69.05,1.33-.1,1.91-.48.04-.02.08-.04.12-.06.18-.18.35-.36.53-.54.04-.06.08-.12.12-.19.08-.22.19-.44.24-.67.1-.46.23-.93.23-1.39.02-3.68.01-7.36.01-11.06h6.46v.27c0,3.54.01,7.08,0,10.63,0,1.63-.28,3.22-1.07,4.67-.47.86-1.08,1.59-1.88,2.17-.06.04-.11.11-.16.17-.01.01-.03.03-.04.04-.33.2-.63.45-.98.6-.76.31-1.54.58-2.31.85-.23.08-.47.09-.71.13-.04.01-.08.03-.12.04-.08,0-.16.01-.23.02-.12-.02-.25-.05-.37-.07-.32,0-.63,0-.95,0-.17-.09-.34-.15-.48.05-.26,0-.52,0-.78,0-.24-.15-.74-.16-.9,0Z"/>
  <path d="m7,30.9s-.04,0-.06-.01c-.18-.21-.46-.24-.66-.06-.54-.12-1.08-.2-1.61-.36-1.65-.5-3.01-1.44-4.14-2.72.02-.07.02-.21.05-.21.31-.05.21-.27.19-.45.24-.36.49-.71.73-1.07.05-.06.11-.12.16-.19.1-.16.21-.31.31-.47.04-.04.07-.08.11-.12.21-.3.41-.59.62-.89.03-.04.07-.08.1-.12.16-.22.32-.44.48-.66.04,0,.08.01.12.02,1.01.96,2.13,1.78,3.53,2.06.7.14,1.42-.06,1.76-.81.09-.08.21-.14.27-.24.03-.04-.07-.15-.11-.24.01-2.42.03-4.83.03-7.25,0-.71-.03-.72-.76-.73-1.86,0-3.73,0-5.59,0-.1,0-.19,0-.3,0v-5.11h13.15c0,.1,0,.2,0,.29,0,4.08.01,8.15,0,12.23,0,1.41-.2,2.79-.94,4.05-.61,1.04-1.41,1.84-2.53,2.31-.55.23-1.12.41-1.68.6-.11.04-.23.03-.35.04-.04.01-.08.03-.12.04-.08,0-.16.02-.23.03-.04-.01-.08-.02-.13-.03-.04-.05-.09-.14-.13-.13-.36.02-.71.06-1.07.09-.32.02-.63.04-.95.06-.08.02-.17.04-.25.06Z"/>
  <path class="g" d="m32.6.6c0,1.59,0,3.18,0,4.76-.26.04-.52.1-.78.11-.25.01-.49-.05-.74-.05-9.94,0-19.88,0-29.82,0-.08,0-.16,0-.24,0-.43.02-.53-.07-.54-.51,0-1.09,0-2.18,0-3.27,0-.27.06-.55.09-.82.03-.18.12-.24.32-.2.3.06.61.09.91.09,5.14,0,10.27.03,15.41,0,5.13-.04,10.26.16,15.39-.11Z"/>
  <path d="m24.17,30.77h-6.15V11.27h6.43c0,.05.01.11.01.16,0,6.3,0,12.6,0,18.9,0,.05,0,.1,0,.15-.16.04-.3.08-.29.29Z"/>
  <path class="g" d="m32.6.6c-5.13.27-10.26.08-15.39.11-5.13.04-10.27,0-15.41,0-.31,0-.61-.04-.91-.09-.2-.04-.29.02-.32.2-.04.27-.09.55-.09.82-.01,1.09,0,2.18,0,3.27,0,.43.11.53.54.51.08,0,.16,0,.24,0,9.94,0,19.88,0,29.82,0,.25,0,.49.06.74.05.26-.01.52-.07.78-.11v.4H.32V.32h32.28v.27Z"/>
  <path class="i" d="m.78,27.09c.02.18.12.4-.19.45-.03,0-.03.14-.05.21-.04-.04-.08-.08-.13-.13,0-.02,0-.04.01-.06.12-.16.24-.32.36-.48Z"/>
  <path class="i" d="m6.28,30.83c.2-.18.48-.16.66.06-.06,0-.13-.01-.19-.02-.16-.01-.31-.03-.47-.04Z"/>
  <path class="i" d="m8.85,24.35c.04.08.13.19.11.24-.06.1-.17.16-.27.24.05-.16.11-.32.16-.48Z"/>
  <path class="i" d="m46.2,30.77c-.01-.21.13-.25.29-.29v.29h-.29Z"/>
  <path class="i" d="m24.17,30.77c-.01-.21.13-.25.29-.29v.29h-.29Z"/>
  <path class="i" d="m33.75,30.77c-.01-.21.13-.25.29-.29v.29h-.29Z"/>
  <path class="i" d="m60.13,30.78c.12.02.25.05.37.07,0,.02,0,.03,0,.05-.12,0-.24,0-.35.01,0-.04,0-.09-.01-.13Z"/>
  <path class="i" d="m83.95,21.2l.1.08s-.05.05-.08.08c-.03-.03-.05-.07-.08-.1.02-.02.04-.04.06-.05Z"/>
  <path class="i" d="m56.26,24.23c-.18,0-.21-.1-.13-.24.04.08.08.16.13.24Z"/>
  <path class="i" d="m1.67,25.83c-.05.06-.11.12-.16.19.05-.06.11-.12.16-.19Z"/>
  <path class="i" d="m58.4,25.66l-.18-.04.18.04Z"/>
  <path class="i" d="m2.09,25.24s-.07.08-.11.12c.04-.04.07-.08.11-.12Z"/>
  <path class="i" d="m61.09,24.4c-.04.06-.08.12-.12.19.04-.06.08-.12.12-.19Z"/>
  <path class="i" d="m2.81,24.23s-.07.08-.1.12c.03-.04.07-.08.1-.12Z"/>
  <path class="i" d="m3.41,23.58s-.08-.01-.12-.02c.02-.04.03-.09.08-.21.02.13.03.18.04.23Z"/>
  <path class="i" d="m76.54,11.67c-.04-.06-.08-.12-.12-.18.04.06.08.12.12.18Z"/>
  <path class="i" d="m9.75,30.83s.08-.03.12-.04c-.04.01-.08.03-.12.04Z"/>
  <path class="i" d="m60.44,25.12s-.08.04-.12.06c.04-.02.08-.04.12-.06Z"/>
  <path class="i" d="m60.74,30.83s.08-.03.12-.04c-.04.01-.08.03-.12.04Z"/>
  <path class="i" d="m.42,27.57s0,.04-.01.06c0-.02-.01-.03-.01-.05,0,0,.02,0,.02-.01Z"/>
  <path class="i" d="m64.87,29.22s.03-.03.04-.04c-.01.01-.03.03-.04.04Z"/>
  <path class="i" d="m50.04,26.02s.03.04.05.06c-.02-.02-.03-.04-.05-.06Z"/>
  <path class="i" d="m83.71,21.02s-.03-.04-.05-.06c.02.02.03.04.05.06Z"/>
  <path class="i" d="m83.66,20.96s-.04-.04-.06-.06c.02.02.04.04.06.06Z"/>
  <path class="i" d="m83.96,11.29s0,0,0,0c-.01,0-.03,0-.04,0,.01,0,.03,0,.04,0Z"/>
  <path class="i" d="m58.7,30.84c.14-.2.31-.14.48-.05-.16.02-.32.03-.48.05Z"/>
</svg>